<svg width="29" height="28" viewBox="0 0 29 28" fill="none" xmlns="http://www.w3.org/2000/svg">
<rect width="29" height="28" rx="3" fill="#FEE2E2"/>
<path d="M7 10.6836H21.737V10.6836C21.3132 10.6836 21.1012 10.6836 20.9245 10.7156C20.1038 10.8642 19.4615 11.5065 19.3129 12.3272C19.2808 12.504 19.2808 12.7159 19.2808 13.1398V16.9995C19.2808 18.8851 19.2808 19.8279 18.6951 20.4137C18.1093 20.9995 17.1665 20.9995 15.2808 20.9995H13.4562C11.5706 20.9995 10.6277 20.9995 10.042 20.4137C9.45617 19.8279 9.45617 18.8851 9.45617 16.9995V13.1398C9.45617 12.7159 9.45617 12.504 9.42417 12.3272C9.27555 11.5065 8.63324 10.8642 7.81253 10.7156C7.63579 10.6836 7.42386 10.6836 7 10.6836V10.6836Z" stroke="#DC2626" stroke-width="2" stroke-linecap="round"/>
<path d="M15.842 16.5801L15.842 14.3695" stroke="#DC2626" stroke-width="2" stroke-linecap="round"/>
<path d="M12.8948 16.5801L12.8948 14.3695" stroke="#DC2626" stroke-width="2" stroke-linecap="round"/>
<path d="M12.9449 7.27307C13.0288 7.19473 13.2138 7.12551 13.4712 7.07613C13.7286 7.02676 14.0439 7 14.3683 7C14.6928 7 15.0081 7.02676 15.2655 7.07613C15.5228 7.12551 15.7079 7.19473 15.7918 7.27307" stroke="#DC2626" stroke-width="2" stroke-linecap="round"/>
</svg>
