<svg width="17" height="18" viewBox="0 0 17 18" fill="none" xmlns="http://www.w3.org/2000/svg">
<rect width="17" height="18" rx="2" fill="#861A1A"/>
<path d="M7.41675 11.125L7.41675 9.5" stroke="white" stroke-width="2" stroke-linecap="round"/>
<path d="M9.58325 11.125L9.58325 9.5" stroke="white" stroke-width="2" stroke-linecap="round"/>
<path d="M3.625 6.7915H13.375V6.7915C12.4775 6.7915 11.75 7.51904 11.75 8.4165V10.5832C11.75 11.7505 11.75 12.3341 11.5138 12.776C11.3274 13.1248 11.0416 13.4105 10.6928 13.597C10.251 13.8332 9.66732 13.8332 8.5 13.8332V13.8332C7.33268 13.8332 6.74903 13.8332 6.30721 13.597C5.95835 13.4105 5.67262 13.1248 5.48616 12.776C5.25 12.3341 5.25 11.7505 5.25 10.5832V8.4165C5.25 7.51904 4.52246 6.7915 3.625 6.7915V6.7915Z" stroke="white" stroke-width="2" stroke-linecap="round"/>
<path d="M7.4535 4.82574C7.51522 4.76815 7.65123 4.71726 7.84043 4.68097C8.02962 4.64467 8.26144 4.625 8.49992 4.625C8.7384 4.625 8.97021 4.64467 9.15941 4.68097C9.34861 4.71726 9.48462 4.76815 9.54634 4.82574" stroke="white" stroke-width="2" stroke-linecap="round"/>
</svg>
