<svg width="29" height="28" viewBox="0 0 29 28" fill="none" xmlns="http://www.w3.org/2000/svg">
<rect width="29" height="28" rx="3" fill="#C6E1FE"/>
<mask id="path-2-outside-1_513_4823" maskUnits="userSpaceOnUse" x="7.16663" y="7" width="15" height="15" fill="black">
<rect fill="white" x="7.16663" y="7" width="15" height="15"/>
<path d="M16.25 10.25L10.3917 16.1083C10.197 16.3029 10.0997 16.4003 10.0327 16.5186C9.96575 16.6368 9.93237 16.7704 9.8656 17.0374L9.36874 19.0249C9.27848 19.3859 9.23335 19.5664 9.33344 19.6665C9.43353 19.7666 9.61404 19.7215 9.97507 19.6312L9.97508 19.6312L11.9625 19.1344C12.2296 19.0676 12.3631 19.0342 12.4814 18.9672C12.5997 18.9003 12.697 18.8029 12.8917 18.6083L18.75 12.75C19.2585 12.2415 19.5128 11.9872 19.5692 11.6814C19.5913 11.5615 19.5913 11.4385 19.5692 11.3186C19.5128 11.0128 19.2585 10.7585 18.75 10.25C18.2414 9.74147 17.9872 9.48721 17.6813 9.4308C17.5614 9.40868 17.4385 9.40868 17.3186 9.4308C17.0128 9.48721 16.7585 9.74147 16.25 10.25Z"/>
</mask>
<path d="M10.3917 16.1083L11.8059 17.5225L11.8059 17.5225L10.3917 16.1083ZM16.25 10.25L14.8357 8.83579L14.8357 8.83579L16.25 10.25ZM12.8917 18.6083L14.3059 20.0225L14.3059 20.0225L12.8917 18.6083ZM9.8656 17.0374L7.92532 16.5524L9.8656 17.0374ZM9.36874 19.0249L11.309 19.51L9.36874 19.0249ZM9.97508 19.6312L9.49001 17.6909L9.40287 17.7127L9.31804 17.7422L9.97508 19.6312ZM11.9625 19.1344L12.4476 21.0746H12.4476L11.9625 19.1344ZM9.33344 19.6665L10.7477 18.2523L10.7477 18.2523L9.33344 19.6665ZM9.97507 19.6312L10.4601 21.5715L10.5473 21.5497L10.6321 21.5202L9.97507 19.6312ZM12.4814 18.9672L13.4668 20.7076L13.4668 20.7076L12.4814 18.9672ZM18.75 10.25L20.1642 8.83579L20.1642 8.83579L18.75 10.25ZM19.5692 11.3186L21.536 10.9559L21.536 10.9558L19.5692 11.3186ZM19.5692 11.6814L21.536 12.0442L21.536 12.0441L19.5692 11.6814ZM17.3186 9.4308L17.6813 11.3976L17.3186 9.4308ZM17.6813 9.4308L18.0441 7.46398L18.0441 7.46398L17.6813 9.4308ZM10.0327 16.5186L8.29232 15.5332L8.29232 15.5332L10.0327 16.5186ZM11.8059 17.5225L17.6642 11.6642L14.8357 8.83579L8.97746 14.6941L11.8059 17.5225ZM17.3357 11.3358L11.4775 17.1941L14.3059 20.0225L20.1642 14.1642L17.3357 11.3358ZM7.92532 16.5524L7.42845 18.5398L11.309 19.51L11.8059 17.5225L7.92532 16.5524ZM10.4601 21.5715L12.4476 21.0746L11.4775 17.1941L9.49001 17.6909L10.4601 21.5715ZM7.42845 18.5398C7.39963 18.6551 7.31718 18.9629 7.28921 19.2488C7.25883 19.5595 7.23172 20.3932 7.91923 21.0807L10.7477 18.2523C11.0133 18.518 11.1658 18.8338 11.2331 19.1262C11.2918 19.3811 11.2763 19.5762 11.2702 19.6383C11.2636 19.7057 11.2545 19.7374 11.2636 19.6964C11.272 19.6587 11.2845 19.608 11.309 19.51L7.42845 18.5398ZM9.31804 17.7422L9.31803 17.7422L10.6321 21.5202L10.6321 21.5202L9.31804 17.7422ZM9.49001 17.6909C9.39193 17.7155 9.34129 17.728 9.30356 17.7363C9.26258 17.7454 9.29425 17.7363 9.36169 17.7297C9.42374 17.7237 9.61886 17.7082 9.8738 17.7669C10.1662 17.8342 10.482 17.9866 10.7477 18.2523L7.91922 21.0807C8.60673 21.7682 9.4405 21.7411 9.75112 21.7107C10.037 21.6828 10.3448 21.6003 10.4601 21.5715L9.49001 17.6909ZM11.4775 17.1941C11.4528 17.2188 11.4317 17.2399 11.4121 17.2593C11.3927 17.2787 11.3767 17.2945 11.3629 17.308C11.3491 17.3215 11.3391 17.3312 11.3317 17.3382C11.3281 17.3416 11.3254 17.3441 11.3236 17.3458C11.3217 17.3475 11.3209 17.3483 11.3209 17.3482C11.3209 17.3482 11.3219 17.3473 11.3239 17.3456C11.3259 17.3439 11.3289 17.3413 11.3329 17.338C11.3408 17.3314 11.3529 17.3216 11.3686 17.3098C11.3845 17.2979 11.4036 17.2843 11.4256 17.2699C11.4477 17.2553 11.4713 17.2408 11.496 17.2268L13.4668 20.7076C13.8759 20.476 14.1863 20.1421 14.3059 20.0225L11.4775 17.1941ZM12.4476 21.0746C12.6117 21.0336 13.0577 20.9393 13.4668 20.7076L11.496 17.2268C11.5208 17.2128 11.5453 17.2001 11.5691 17.1886C11.5929 17.1772 11.6143 17.1678 11.6327 17.1603C11.6509 17.1529 11.6655 17.1475 11.6753 17.1441C11.6801 17.1424 11.6839 17.1412 11.6864 17.1403C11.6889 17.1395 11.6902 17.1391 11.6902 17.1391C11.6902 17.1391 11.6891 17.1395 11.6867 17.1402C11.6843 17.1409 11.6808 17.1419 11.676 17.1432C11.6662 17.1459 11.6527 17.1496 11.6341 17.1544C11.6154 17.1593 11.5936 17.1649 11.5671 17.1716C11.5403 17.1784 11.5114 17.1856 11.4775 17.1941L12.4476 21.0746ZM17.3357 11.6642C17.467 11.7954 17.5629 11.8915 17.6426 11.9744C17.7224 12.0575 17.76 12.1007 17.7761 12.1205C17.7916 12.1396 17.762 12.1066 17.7225 12.0321C17.6782 11.9487 17.6296 11.829 17.6023 11.6814L21.536 10.9558C21.4222 10.3388 21.1192 9.89224 20.8821 9.60011C20.6671 9.33516 20.3883 9.05988 20.1642 8.83579L17.3357 11.6642ZM20.1642 14.1642C20.3883 13.9401 20.6671 13.6648 20.8821 13.3999C21.1192 13.1078 21.4222 12.6612 21.536 12.0442L17.6023 11.3186C17.6296 11.171 17.6782 11.0513 17.7225 10.9679C17.762 10.8934 17.7916 10.8604 17.7761 10.8795C17.76 10.8993 17.7224 10.9425 17.6426 11.0256C17.5629 11.1085 17.467 11.2046 17.3357 11.3358L20.1642 14.1642ZM17.6023 11.6814C17.5802 11.5615 17.5802 11.4385 17.6023 11.3186L21.536 12.0441C21.6023 11.6844 21.6023 11.3156 21.536 10.9559L17.6023 11.6814ZM17.6642 11.6642C17.7954 11.533 17.8914 11.4371 17.9743 11.3574C18.0574 11.2775 18.1006 11.24 18.1205 11.2239C18.1396 11.2084 18.1066 11.2379 18.0321 11.2775C17.9486 11.3218 17.829 11.3704 17.6813 11.3976L16.9558 7.46398C16.3388 7.57779 15.8922 7.88079 15.6001 8.11784C15.3351 8.33284 15.0598 8.61169 14.8357 8.83579L17.6642 11.6642ZM20.1642 8.83579C19.9401 8.61169 19.6648 8.33284 19.3998 8.11784C19.1077 7.88079 18.6612 7.57779 18.0441 7.46398L17.3186 11.3976C17.1709 11.3704 17.0513 11.3218 16.9678 11.2775C16.8933 11.2379 16.8604 11.2084 16.8794 11.2239C16.8993 11.24 16.9425 11.2775 17.0256 11.3574C17.1085 11.4371 17.2045 11.533 17.3357 11.6642L20.1642 8.83579ZM17.6813 11.3976C17.5614 11.4197 17.4385 11.4197 17.3186 11.3976L18.0441 7.46398C17.6844 7.39763 17.3155 7.39763 16.9558 7.46398L17.6813 11.3976ZM8.97746 14.6941C8.85789 14.8136 8.52397 15.124 8.29232 15.5332L11.7731 17.504C11.7591 17.5287 11.7447 17.5522 11.7301 17.5744C11.7156 17.5964 11.702 17.6155 11.6901 17.6313C11.6783 17.6471 11.6686 17.6591 11.662 17.6671C11.6587 17.6711 11.6561 17.6741 11.6544 17.6761C11.6527 17.678 11.6517 17.6791 11.6517 17.6791C11.6517 17.6791 11.6525 17.6782 11.6542 17.6764C11.6559 17.6745 11.6584 17.6719 11.6618 17.6683C11.6688 17.6609 11.6785 17.6508 11.692 17.6371C11.7055 17.6233 11.7213 17.6073 11.7406 17.5879C11.7601 17.5683 11.7812 17.5472 11.8059 17.5225L8.97746 14.6941ZM11.8059 17.5225C11.8144 17.4886 11.8216 17.4597 11.8284 17.4329C11.8351 17.4063 11.8406 17.3845 11.8455 17.3659C11.8504 17.3472 11.854 17.3337 11.8568 17.3239C11.8581 17.3192 11.8591 17.3157 11.8598 17.3132C11.8605 17.3108 11.8608 17.3097 11.8608 17.3097C11.8608 17.3098 11.8604 17.3111 11.8596 17.3136C11.8588 17.3161 11.8575 17.3198 11.8558 17.3247C11.8524 17.3345 11.8471 17.349 11.8397 17.3672C11.8322 17.3856 11.8228 17.4071 11.8114 17.4308C11.7999 17.4547 11.7871 17.4792 11.7731 17.5039L8.29232 15.5332C8.06067 15.9423 7.96633 16.3883 7.92532 16.5524L11.8059 17.5225Z" fill="#0883DB" mask="url(#path-2-outside-1_513_4823)"/>
<path d="M15.4166 10.2507L17.9166 8.58398L20.4166 11.084L18.75 13.584L15.4166 10.2507Z" fill="#0883DB" stroke="#0883DB" stroke-width="2"/>
</svg>
