<svg width="38" height="18" viewBox="0 0 17 18" fill="none" xmlns="http://www.w3.org/2000/svg">
<rect width="17" height="18" rx="2" fill="#1A861F"/>
<path d="M4.66265 10.2759L5.52741 10.7655L4.66265 10.2759C4.52576 10.5176 4.46069 10.7813 4.40929 10.9896C4.40462 11.0085 4.40007 11.027 4.39558 11.0449L4.14872 12.0323C4.14592 12.0436 4.14299 12.0552 4.13997 12.0672C4.10315 12.2137 4.05215 12.4166 4.03458 12.5962C4.01436 12.8029 4.00768 13.2548 4.37646 13.6236C4.74523 13.9924 5.19719 13.9857 5.40389 13.9655C5.5835 13.9479 5.78642 13.8969 5.9329 13.8601C5.94491 13.8571 5.95653 13.8542 5.96774 13.8514L6.95519 13.6045C6.97313 13.6 6.99158 13.5955 7.01049 13.5908C7.21879 13.5394 7.48246 13.4743 7.72423 13.3374L7.72423 13.3374C7.966 13.2005 8.15745 13.0079 8.3087 12.8558C8.32243 12.8419 8.33583 12.8285 8.3489 12.8154L12.3322 8.83211L12.3322 8.8321C12.333 8.83127 12.3338 8.83045 12.3347 8.82962C12.345 8.81933 12.3555 8.80882 12.3663 8.7981C12.4848 8.68007 12.6297 8.53588 12.7378 8.37749C13.2019 7.69748 13.2019 6.80252 12.7378 6.12251C12.6297 5.96412 12.4848 5.81993 12.3663 5.70191C12.3547 5.69032 12.3433 5.67898 12.3322 5.6679L11.6251 6.37501L12.3322 5.6679L12.3322 5.66789C12.3211 5.65682 12.3098 5.64543 12.2982 5.63379C12.1802 5.51525 12.036 5.37043 11.8776 5.26232L11.3979 5.96511L11.8776 5.26232C11.1976 4.79818 10.3026 4.79818 9.62259 5.26232L10.1822 6.08214L9.62259 5.26232C9.4642 5.37043 9.32001 5.51524 9.20198 5.63379C9.19039 5.64543 9.17905 5.65682 9.16797 5.66789L5.18469 9.65118C5.17161 9.66425 5.15813 9.67765 5.14432 9.69139C4.99215 9.84264 4.79953 10.0341 4.66265 10.2759Z" stroke="white" stroke-width="2"/>
<path d="M9.29175 6.37516L11.0417 5.2085L12.7917 6.9585L11.6251 8.7085L9.29175 6.37516Z" fill="#33363F" stroke="white" stroke-width="2"/>
</svg>
