<svg width="13" height="11" viewBox="0 0 13 11" fill="none" xmlns="http://www.w3.org/2000/svg">
<path d="M2.70833 3.33317V6.0415C2.70833 7.72536 2.70833 8.56729 3.18328 9.12708C3.25389 9.21031 3.3312 9.28761 3.41442 9.35823C3.97421 9.83317 4.81614 9.83317 6.5 9.83317V9.83317C8.18386 9.83317 9.02579 9.83317 9.58558 9.35823C9.6688 9.28761 9.74611 9.21031 9.81672 9.12708C10.2917 8.56729 10.2917 7.72536 10.2917 6.0415V3.33317M2.70833 3.33317H10.2917M2.70833 3.33317H1.82197C1.71319 3.33317 1.625 3.24498 1.625 3.1362V3.1362C1.625 2.04837 2.50686 1.1665 3.5947 1.1665H9.4053C10.4931 1.1665 11.375 2.04837 11.375 3.1362V3.1362C11.375 3.24498 11.2868 3.33317 11.178 3.33317H10.2917" stroke="#33363F" stroke-width="2"/>
<path d="M5.41669 7.6665H7.58335" stroke="#33363F" stroke-width="2" stroke-linecap="round"/>
<path d="M2.70833 3.33317V6.0415C2.70833 7.72536 2.70833 8.56729 3.18328 9.12708C3.25389 9.21031 3.3312 9.28761 3.41442 9.35823C3.97421 9.83317 4.81614 9.83317 6.5 9.83317V9.83317C8.18386 9.83317 9.02579 9.83317 9.58558 9.35823C9.6688 9.28761 9.74611 9.21031 9.81672 9.12708C10.2917 8.56729 10.2917 7.72536 10.2917 6.0415V3.33317M2.70833 3.33317H10.2917M2.70833 3.33317H1.82197C1.71319 3.33317 1.625 3.24498 1.625 3.1362V3.1362C1.625 2.04837 2.50686 1.1665 3.5947 1.1665H9.4053C10.4931 1.1665 11.375 2.04837 11.375 3.1362V3.1362C11.375 3.24498 11.2868 3.33317 11.178 3.33317H10.2917" stroke="#33363F" stroke-width="2"/>
<path d="M5.41669 7.6665H7.58335" stroke="#33363F" stroke-width="2" stroke-linecap="round"/>
</svg>
