<svg width="13" height="13" viewBox="0 0 13 13" fill="none" xmlns="http://www.w3.org/2000/svg">
<path d="M3.20009 3.19984C2.43665 3.96327 1.96155 4.9678 1.85572 6.04226C1.7499 7.11672 2.0199 8.19463 2.61973 9.09233C3.21955 9.99004 4.11209 10.652 5.14526 10.9654C6.17842 11.2788 7.2883 11.2243 8.28577 10.8111C9.28325 10.3979 10.1066 9.6517 10.6156 8.69953C11.1245 7.74735 11.2875 6.64817 11.0769 5.58925C10.8663 4.53034 10.295 3.57722 9.46042 2.89229C8.62583 2.20736 7.57958 1.83301 6.49992 1.83301" stroke="#33363F" stroke-width="2" stroke-linecap="round"/>
<path d="M6.5 6.5L3.75 3.75" stroke="#33363F" stroke-width="2" stroke-linecap="round"/>
<path d="M6.5 2.375V3.29167" stroke="#33363F" stroke-width="2" stroke-linecap="round"/>
<path d="M10.625 6.5L9.70833 6.5" stroke="#33363F" stroke-width="2" stroke-linecap="round"/>
<path d="M6.5 9.70801V10.6247" stroke="#33363F" stroke-width="2" stroke-linecap="round"/>
<path d="M3.29175 6.5L2.37508 6.5" stroke="#33363F" stroke-width="2" stroke-linecap="round"/>
<path d="M3.20009 3.19984C2.43665 3.96327 1.96155 4.9678 1.85572 6.04226C1.7499 7.11672 2.0199 8.19463 2.61973 9.09233C3.21955 9.99004 4.11209 10.652 5.14526 10.9654C6.17842 11.2788 7.2883 11.2243 8.28577 10.8111C9.28325 10.3979 10.1066 9.6517 10.6156 8.69953C11.1245 7.74735 11.2875 6.64817 11.0769 5.58925C10.8663 4.53034 10.295 3.57722 9.46042 2.89229C8.62583 2.20736 7.57958 1.83301 6.49992 1.83301" stroke="#33363F" stroke-width="2" stroke-linecap="round"/>
<path d="M6.5 6.5L3.75 3.75" stroke="#33363F" stroke-width="2" stroke-linecap="round"/>
<path d="M6.5 2.375V3.29167" stroke="#33363F" stroke-width="2" stroke-linecap="round"/>
<path d="M10.625 6.5L9.70833 6.5" stroke="#33363F" stroke-width="2" stroke-linecap="round"/>
<path d="M6.5 9.70801V10.6247" stroke="#33363F" stroke-width="2" stroke-linecap="round"/>
<path d="M3.29175 6.5L2.37508 6.5" stroke="#33363F" stroke-width="2" stroke-linecap="round"/>
<path d="M3.20009 3.19984C2.43665 3.96327 1.96155 4.9678 1.85572 6.04226C1.7499 7.11672 2.0199 8.19463 2.61973 9.09233C3.21955 9.99004 4.11209 10.652 5.14526 10.9654C6.17842 11.2788 7.2883 11.2243 8.28577 10.8111C9.28325 10.3979 10.1066 9.6517 10.6156 8.69953C11.1245 7.74735 11.2875 6.64817 11.0769 5.58925C10.8663 4.53034 10.295 3.57722 9.46042 2.89229C8.62583 2.20736 7.57958 1.83301 6.49992 1.83301" stroke="#33363F" stroke-width="2" stroke-linecap="round"/>
<path d="M6.5 6.5L3.75 3.75" stroke="#33363F" stroke-width="2" stroke-linecap="round"/>
<path d="M6.5 2.375V3.29167" stroke="#33363F" stroke-width="2" stroke-linecap="round"/>
<path d="M10.625 6.5L9.70833 6.5" stroke="#33363F" stroke-width="2" stroke-linecap="round"/>
<path d="M6.5 9.70801V10.6247" stroke="#33363F" stroke-width="2" stroke-linecap="round"/>
<path d="M3.29175 6.5L2.37508 6.5" stroke="#33363F" stroke-width="2" stroke-linecap="round"/>
<path d="M3.20009 3.19984C2.43665 3.96327 1.96155 4.9678 1.85572 6.04226C1.7499 7.11672 2.0199 8.19463 2.61973 9.09233C3.21955 9.99004 4.11209 10.652 5.14526 10.9654C6.17842 11.2788 7.2883 11.2243 8.28577 10.8111C9.28325 10.3979 10.1066 9.6517 10.6156 8.69953C11.1245 7.74735 11.2875 6.64817 11.0769 5.58925C10.8663 4.53034 10.295 3.57722 9.46042 2.89229C8.62583 2.20736 7.57958 1.83301 6.49992 1.83301" stroke="#33363F" stroke-width="2" stroke-linecap="round"/>
<path d="M6.5 6.5L3.75 3.75" stroke="#33363F" stroke-width="2" stroke-linecap="round"/>
<path d="M6.5 2.375V3.29167" stroke="#33363F" stroke-width="2" stroke-linecap="round"/>
<path d="M10.625 6.5L9.70833 6.5" stroke="#33363F" stroke-width="2" stroke-linecap="round"/>
<path d="M6.5 9.70801V10.6247" stroke="#33363F" stroke-width="2" stroke-linecap="round"/>
<path d="M3.29175 6.5L2.37508 6.5" stroke="#33363F" stroke-width="2" stroke-linecap="round"/>
</svg>
