<svg width="13" height="13" viewBox="0 0 13 13" fill="none" xmlns="http://www.w3.org/2000/svg">
<path d="M7.65706 1.82094L8.65209 1.72144V1.72144L7.65706 1.82094ZM8.99049 2.37328L9.62373 3.14723L8.99049 2.37328ZM10.0881 2.42802L10.7952 1.72091L10.7952 1.72091L10.0881 2.42802ZM10.5721 2.91198L9.86499 3.61909L9.86499 3.61909L10.5721 2.91198ZM10.6268 4.00963L9.85289 3.3764L9.85289 3.3764L10.6268 4.00963ZM11.1792 5.34308L11.2787 4.34805H11.2787L11.1792 5.34308ZM11.1792 7.65724L11.0797 6.6622L11.1792 7.65724ZM10.6269 8.99052L11.4009 8.35729V8.35728L10.6269 8.99052ZM8.99052 10.6268L9.62376 9.85285L9.62375 9.85285L8.99052 10.6268ZM7.65707 11.1793L6.66203 11.0797L7.65707 11.1793ZM5.3429 11.1794L4.34786 11.2789H4.34786L5.3429 11.1794ZM4.00944 10.627L4.64267 11.401H4.64267L4.00944 10.627ZM2.91177 10.5723L3.61887 9.86519H3.61887L2.91177 10.5723ZM2.42782 10.0884L1.72071 10.7955H1.72071L2.42782 10.0884ZM2.37308 8.99069L3.14703 9.62393H3.14703L2.37308 8.99069ZM1.82076 7.65724L1.72125 8.65228H1.72125L1.82076 7.65724ZM1.82082 5.34308L1.72132 4.34804L1.72132 4.34804L1.82082 5.34308ZM2.37317 4.00948L1.59921 4.64272L1.59921 4.64272L2.37317 4.00948ZM2.42791 2.91167L1.7208 2.20456L1.7208 2.20456L2.42791 2.91167ZM4.0095 2.37308L4.64274 1.59912L4.64274 1.59912L4.0095 2.37308ZM5.34291 1.82087L6.33794 1.92037V1.92037L5.34291 1.82087ZM8.65209 1.72144C8.55911 0.791602 7.77667 0.0834961 6.84219 0.0834961V2.0835C6.74916 2.0835 6.67128 2.01301 6.66202 1.92045L8.65209 1.72144ZM8.35726 1.59932C8.46907 1.50783 8.63772 1.5777 8.65209 1.72144L6.66202 1.92045C6.80642 3.3644 8.50058 4.06617 9.62373 3.14723L8.35726 1.59932ZM10.7952 1.72091C10.1345 1.06014 9.0805 1.00757 8.35726 1.59932L9.62373 3.14723C9.55173 3.20614 9.44681 3.20091 9.38103 3.13513L10.7952 1.72091ZM11.2792 2.20488L10.7952 1.72091L9.38103 3.13513L9.86499 3.61909L11.2792 2.20488ZM11.4008 4.64287C11.9925 3.91963 11.94 2.86565 11.2792 2.20488L9.86499 3.61909C9.79921 3.55331 9.79398 3.44839 9.85289 3.3764L11.4008 4.64287ZM11.2787 4.34805C11.4224 4.36242 11.4923 4.53105 11.4008 4.64287L9.85289 3.3764C8.93393 4.49956 9.63574 6.19373 11.0797 6.33812L11.2787 4.34805ZM12.9166 6.15796C12.9166 5.22347 12.2085 4.44103 11.2787 4.34805L11.0797 6.33812C10.9871 6.32887 10.9166 6.25099 10.9166 6.15796H12.9166ZM12.9166 6.84243V6.15796H10.9166V6.84243H12.9166ZM11.2787 8.65227C12.2085 8.5593 12.9166 7.77691 12.9166 6.84243H10.9166C10.9166 6.74934 10.9872 6.67146 11.0797 6.6622L11.2787 8.65227ZM11.4009 8.35728C11.4925 8.46923 11.4225 8.6379 11.2787 8.65227L11.0797 6.6622C9.63594 6.80658 8.93402 8.5006 9.85297 9.62376L11.4009 8.35728ZM11.2793 10.7951C11.94 10.1344 11.9926 9.08049 11.4009 8.35729L9.85297 9.62376C9.79403 9.55172 9.79926 9.44675 9.86508 9.38093L11.2793 10.7951ZM10.7953 11.2792L11.2793 10.7951L9.86508 9.38093L9.38105 9.86496L10.7953 11.2792ZM8.35728 11.4008C9.08052 11.9925 10.1345 11.9399 10.7953 11.2792L9.38105 9.86496C9.44683 9.79918 9.55176 9.79394 9.62376 9.85285L8.35728 11.4008ZM8.65211 11.2788C8.63776 11.4223 8.46928 11.4924 8.35728 11.4008L9.62375 9.85285C8.50042 8.93376 6.8064 9.63603 6.66203 11.0797L8.65211 11.2788ZM6.84211 12.9168C7.77672 12.9168 8.55913 12.2086 8.65211 11.2788L6.66203 11.0797C6.67128 10.9873 6.74905 10.9168 6.84211 10.9168V12.9168ZM6.15777 12.9168H6.84211V10.9168H6.15777V12.9168ZM4.34786 11.2789C4.44085 12.2087 5.22329 12.9168 6.15777 12.9168V10.9168C6.25079 10.9168 6.32868 10.9873 6.33794 11.0799L4.34786 11.2789ZM4.64267 11.401C4.53088 11.4925 4.36224 11.4226 4.34786 11.2789L6.33794 11.0799C6.19354 9.63588 4.49934 8.93415 3.3762 9.85309L4.64267 11.401ZM2.20466 11.2794C2.86544 11.9402 3.91943 11.9928 4.64267 11.401L3.3762 9.85309C3.44819 9.79419 3.5531 9.79942 3.61887 9.86519L2.20466 11.2794ZM1.72071 10.7955L2.20466 11.2794L3.61887 9.86519L3.13493 9.38124L1.72071 10.7955ZM1.59912 8.35745C1.00738 9.08069 1.05993 10.1347 1.72071 10.7955L3.13493 9.38124C3.20071 9.44703 3.20593 9.55194 3.14703 9.62393L1.59912 8.35745ZM1.72125 8.65228C1.57748 8.6379 1.50766 8.46924 1.59912 8.35745L3.14703 9.62393C4.06595 8.5008 3.36425 6.8066 1.92026 6.6622L1.72125 8.65228ZM0.083313 6.84238C0.083313 7.77685 0.791412 8.55929 1.72125 8.65228L1.92026 6.6622C2.01282 6.67146 2.08331 6.74935 2.08331 6.84238H0.083313ZM0.083313 6.15802V6.84238H2.08331V6.15802H0.083313ZM1.72132 4.34804C0.791441 4.44103 0.083313 5.2235 0.083313 6.15802H2.08331C2.08331 6.251 2.01285 6.32886 1.92033 6.33812L1.72132 4.34804ZM1.59921 4.64272C1.50784 4.53104 1.57753 4.36242 1.72132 4.34804L1.92032 6.33812C3.36445 6.1937 4.06604 4.49935 3.14713 3.37624L1.59921 4.64272ZM1.7208 2.20456C1.05996 2.8654 1.00745 3.91946 1.59921 4.64272L3.14713 3.37624C3.20598 3.44817 3.20078 3.55301 3.13502 3.61878L1.7208 2.20456ZM2.20468 1.72068L1.7208 2.20456L3.13502 3.61878L3.6189 3.13489L2.20468 1.72068ZM4.64274 1.59912C3.91955 1.00742 2.86553 1.05984 2.20468 1.72068L3.6189 3.13489C3.55306 3.20073 3.44819 3.20588 3.37626 3.14703L4.64274 1.59912ZM4.34787 1.72137C4.36228 1.57731 4.53108 1.50776 4.64274 1.59912L3.37626 3.14703C4.49917 4.06577 6.19353 3.36453 6.33794 1.92037L4.34787 1.72137ZM6.1577 0.0834961C5.22326 0.0834961 4.44085 0.791566 4.34787 1.72137L6.33794 1.92037C6.32868 2.01298 6.25076 2.0835 6.1577 2.0835V0.0834961ZM6.84219 0.0834961H6.1577V2.0835H6.84219V0.0834961ZM7.66665 6.50016C7.66665 7.1445 7.14431 7.66683 6.49998 7.66683V9.66683C8.24888 9.66683 9.66665 8.24906 9.66665 6.50016H7.66665ZM6.49998 5.3335C7.14431 5.3335 7.66665 5.85583 7.66665 6.50016H9.66665C9.66665 4.75126 8.24888 3.3335 6.49998 3.3335V5.3335ZM5.33331 6.50016C5.33331 5.85583 5.85565 5.3335 6.49998 5.3335V3.3335C4.75108 3.3335 3.33331 4.75126 3.33331 6.50016H5.33331ZM6.49998 7.66683C5.85565 7.66683 5.33331 7.1445 5.33331 6.50016H3.33331C3.33331 8.24906 4.75108 9.66683 6.49998 9.66683V7.66683Z" fill="#33363F"/>
<path d="M7.65706 1.82094L8.65209 1.72144V1.72144L7.65706 1.82094ZM8.99049 2.37328L9.62373 3.14723L8.99049 2.37328ZM10.0881 2.42802L10.7952 1.72091L10.7952 1.72091L10.0881 2.42802ZM10.5721 2.91198L9.86499 3.61909L9.86499 3.61909L10.5721 2.91198ZM10.6268 4.00963L9.85289 3.3764L9.85289 3.3764L10.6268 4.00963ZM11.1792 5.34308L11.2787 4.34805H11.2787L11.1792 5.34308ZM11.1792 7.65724L11.0797 6.6622L11.1792 7.65724ZM10.6269 8.99052L11.4009 8.35729V8.35728L10.6269 8.99052ZM8.99052 10.6268L9.62376 9.85285L9.62375 9.85285L8.99052 10.6268ZM7.65707 11.1793L6.66203 11.0797L7.65707 11.1793ZM5.3429 11.1794L4.34786 11.2789H4.34786L5.3429 11.1794ZM4.00944 10.627L4.64267 11.401H4.64267L4.00944 10.627ZM2.91177 10.5723L3.61887 9.86519H3.61887L2.91177 10.5723ZM2.42782 10.0884L1.72071 10.7955H1.72071L2.42782 10.0884ZM2.37308 8.99069L3.14703 9.62393H3.14703L2.37308 8.99069ZM1.82076 7.65724L1.72125 8.65228H1.72125L1.82076 7.65724ZM1.82082 5.34308L1.72132 4.34804L1.72132 4.34804L1.82082 5.34308ZM2.37317 4.00948L1.59921 4.64272L1.59921 4.64272L2.37317 4.00948ZM2.42791 2.91167L1.7208 2.20456L1.7208 2.20456L2.42791 2.91167ZM4.0095 2.37308L4.64274 1.59912L4.64274 1.59912L4.0095 2.37308ZM5.34291 1.82087L6.33794 1.92037V1.92037L5.34291 1.82087ZM8.65209 1.72144C8.55911 0.791602 7.77667 0.0834961 6.84219 0.0834961V2.0835C6.74916 2.0835 6.67128 2.01301 6.66202 1.92045L8.65209 1.72144ZM8.35726 1.59932C8.46907 1.50783 8.63772 1.5777 8.65209 1.72144L6.66202 1.92045C6.80642 3.3644 8.50058 4.06617 9.62373 3.14723L8.35726 1.59932ZM10.7952 1.72091C10.1345 1.06014 9.0805 1.00757 8.35726 1.59932L9.62373 3.14723C9.55173 3.20614 9.44681 3.20091 9.38103 3.13513L10.7952 1.72091ZM11.2792 2.20488L10.7952 1.72091L9.38103 3.13513L9.86499 3.61909L11.2792 2.20488ZM11.4008 4.64287C11.9925 3.91963 11.94 2.86565 11.2792 2.20488L9.86499 3.61909C9.79921 3.55331 9.79398 3.44839 9.85289 3.3764L11.4008 4.64287ZM11.2787 4.34805C11.4224 4.36242 11.4923 4.53105 11.4008 4.64287L9.85289 3.3764C8.93393 4.49956 9.63574 6.19373 11.0797 6.33812L11.2787 4.34805ZM12.9166 6.15796C12.9166 5.22347 12.2085 4.44103 11.2787 4.34805L11.0797 6.33812C10.9871 6.32887 10.9166 6.25099 10.9166 6.15796H12.9166ZM12.9166 6.84243V6.15796H10.9166V6.84243H12.9166ZM11.2787 8.65227C12.2085 8.5593 12.9166 7.77691 12.9166 6.84243H10.9166C10.9166 6.74934 10.9872 6.67146 11.0797 6.6622L11.2787 8.65227ZM11.4009 8.35728C11.4925 8.46923 11.4225 8.6379 11.2787 8.65227L11.0797 6.6622C9.63594 6.80658 8.93402 8.5006 9.85297 9.62376L11.4009 8.35728ZM11.2793 10.7951C11.94 10.1344 11.9926 9.08049 11.4009 8.35729L9.85297 9.62376C9.79403 9.55172 9.79926 9.44675 9.86508 9.38093L11.2793 10.7951ZM10.7953 11.2792L11.2793 10.7951L9.86508 9.38093L9.38105 9.86496L10.7953 11.2792ZM8.35728 11.4008C9.08052 11.9925 10.1345 11.9399 10.7953 11.2792L9.38105 9.86496C9.44683 9.79918 9.55176 9.79394 9.62376 9.85285L8.35728 11.4008ZM8.65211 11.2788C8.63776 11.4223 8.46928 11.4924 8.35728 11.4008L9.62375 9.85285C8.50042 8.93376 6.8064 9.63603 6.66203 11.0797L8.65211 11.2788ZM6.84211 12.9168C7.77672 12.9168 8.55913 12.2086 8.65211 11.2788L6.66203 11.0797C6.67128 10.9873 6.74905 10.9168 6.84211 10.9168V12.9168ZM6.15777 12.9168H6.84211V10.9168H6.15777V12.9168ZM4.34786 11.2789C4.44085 12.2087 5.22329 12.9168 6.15777 12.9168V10.9168C6.25079 10.9168 6.32868 10.9873 6.33794 11.0799L4.34786 11.2789ZM4.64267 11.401C4.53088 11.4925 4.36224 11.4226 4.34786 11.2789L6.33794 11.0799C6.19354 9.63588 4.49934 8.93415 3.3762 9.85309L4.64267 11.401ZM2.20466 11.2794C2.86544 11.9402 3.91943 11.9928 4.64267 11.401L3.3762 9.85309C3.44819 9.79419 3.5531 9.79942 3.61887 9.86519L2.20466 11.2794ZM1.72071 10.7955L2.20466 11.2794L3.61887 9.86519L3.13493 9.38124L1.72071 10.7955ZM1.59912 8.35745C1.00738 9.08069 1.05993 10.1347 1.72071 10.7955L3.13493 9.38124C3.20071 9.44703 3.20593 9.55194 3.14703 9.62393L1.59912 8.35745ZM1.72125 8.65228C1.57748 8.6379 1.50766 8.46924 1.59912 8.35745L3.14703 9.62393C4.06595 8.5008 3.36425 6.8066 1.92026 6.6622L1.72125 8.65228ZM0.083313 6.84238C0.083313 7.77685 0.791412 8.55929 1.72125 8.65228L1.92026 6.6622C2.01282 6.67146 2.08331 6.74935 2.08331 6.84238H0.083313ZM0.083313 6.15802V6.84238H2.08331V6.15802H0.083313ZM1.72132 4.34804C0.791441 4.44103 0.083313 5.2235 0.083313 6.15802H2.08331C2.08331 6.251 2.01285 6.32886 1.92033 6.33812L1.72132 4.34804ZM1.59921 4.64272C1.50784 4.53104 1.57753 4.36242 1.72132 4.34804L1.92032 6.33812C3.36445 6.1937 4.06604 4.49935 3.14713 3.37624L1.59921 4.64272ZM1.7208 2.20456C1.05996 2.8654 1.00745 3.91946 1.59921 4.64272L3.14713 3.37624C3.20598 3.44817 3.20078 3.55301 3.13502 3.61878L1.7208 2.20456ZM2.20468 1.72068L1.7208 2.20456L3.13502 3.61878L3.6189 3.13489L2.20468 1.72068ZM4.64274 1.59912C3.91955 1.00742 2.86553 1.05984 2.20468 1.72068L3.6189 3.13489C3.55306 3.20073 3.44819 3.20588 3.37626 3.14703L4.64274 1.59912ZM4.34787 1.72137C4.36228 1.57731 4.53108 1.50776 4.64274 1.59912L3.37626 3.14703C4.49917 4.06577 6.19353 3.36453 6.33794 1.92037L4.34787 1.72137ZM6.1577 0.0834961C5.22326 0.0834961 4.44085 0.791566 4.34787 1.72137L6.33794 1.92037C6.32868 2.01298 6.25076 2.0835 6.1577 2.0835V0.0834961ZM6.84219 0.0834961H6.1577V2.0835H6.84219V0.0834961ZM7.66665 6.50016C7.66665 7.1445 7.14431 7.66683 6.49998 7.66683V9.66683C8.24888 9.66683 9.66665 8.24906 9.66665 6.50016H7.66665ZM6.49998 5.3335C7.14431 5.3335 7.66665 5.85583 7.66665 6.50016H9.66665C9.66665 4.75126 8.24888 3.3335 6.49998 3.3335V5.3335ZM5.33331 6.50016C5.33331 5.85583 5.85565 5.3335 6.49998 5.3335V3.3335C4.75108 3.3335 3.33331 4.75126 3.33331 6.50016H5.33331ZM6.49998 7.66683C5.85565 7.66683 5.33331 7.1445 5.33331 6.50016H3.33331C3.33331 8.24906 4.75108 9.66683 6.49998 9.66683V7.66683Z" fill="#33363F"/>
</svg>
