<svg width="169" height="169" viewBox="0 0 169 169" fill="none" xmlns="http://www.w3.org/2000/svg">
<path fill-rule="evenodd" clip-rule="evenodd" d="M122.896 69.1287C122.896 98.8234 98.8234 122.896 69.1287 122.896C39.4341 122.896 15.3619 98.8234 15.3619 69.1287C15.3619 39.4341 39.4341 15.3619 69.1287 15.3619C98.8234 15.3619 122.896 39.4341 122.896 69.1287ZM112.278 123.14C100.452 132.601 85.451 138.257 69.1287 138.257C30.95 138.257 0 107.307 0 69.1287C0 30.95 30.95 0 69.1287 0C107.307 0 138.257 30.95 138.257 69.1287C138.257 85.451 132.601 100.452 123.14 112.278L166.732 155.868C169.731 158.869 169.731 163.732 166.732 166.732C163.732 169.731 158.869 169.731 155.868 166.732L112.278 123.14Z" fill="#787878"/>
</svg>
