<?xml version="1.0" encoding="UTF-8"?>
<svg version="1.1" xmlns="http://www.w3.org/2000/svg" width="128" height="128">
<path d="M0 0 C42.24 0 84.48 0 128 0 C128 42.24 128 84.48 128 128 C85.76 128 43.52 128 0 128 C0 85.76 0 43.52 0 0 Z " fill="#016C39" transform="translate(0,0)"/>
<path d="M0 0 C4.80133868 -0.12473502 9.60170955 -0.21486503 14.40429688 -0.2746582 C16.03369603 -0.29961442 17.66298542 -0.33359254 19.29199219 -0.37719727 C30.3382682 -0.66521366 38.57650925 -0.3426149 47.4375 7.02734375 C52.99664083 13.82339342 54.54274114 19.21302662 54.37890625 28.02734375 C53.5980531 34.15341847 50.27047888 38.09194913 45.6875 42 C44.800625 42.66 43.91375 43.32 43 44 C44.42588145 47.97436164 46.32833834 51.2130664 48.6953125 54.703125 C49.76845703 56.29640625 49.76845703 56.29640625 50.86328125 57.921875 C51.61687192 59.03146439 52.37078203 60.1408369 53.125 61.25 C54.60969524 63.44076152 56.09060397 65.63398216 57.5703125 67.828125 C58.22789551 68.7965332 58.88547852 69.76494141 59.56298828 70.76269531 C61 73 61 73 61 74 C40.55269492 75.62220778 40.55269492 75.62220778 35.16015625 72.1953125 C33.35489563 69.5362698 32.17930804 66.98886924 31 64 C29.84838769 61.79339591 28.66036683 59.6054274 27.4375 57.4375 C26.92058594 56.42558594 26.40367188 55.41367188 25.87109375 54.37109375 C23.86853636 51.28691616 23.86853636 51.28691616 18 51 C18 58.92 18 66.84 18 75 C11.73 75 5.46 75 -1 75 C-1.21702634 70.99706969 -1.37495239 67.00598943 -1.5 63 C-1.56703125 61.87464844 -1.6340625 60.74929687 -1.703125 59.58984375 C-1.89640552 51.32710139 -1.89640552 51.32710139 0.66259766 47.53857422 C2.67618682 45.51184581 4.73721162 43.74068977 7 42 C7.81210937 41.26007813 8.62421875 40.52015625 9.4609375 39.7578125 C10.09257813 39.21898437 10.72421875 38.68015625 11.375 38.125 C13.32104962 36.45806507 15.18703291 34.81296709 17 33 C19.4609375 32.65625 19.4609375 32.65625 22.375 32.5 C26.08362801 32.30007396 28.83329727 32.02437617 32 30 C33.52150158 26.95699684 33.23899393 24.345915 33 21 C29.48281398 18.65520932 28.89118093 19.05057313 24.875 19.375 C15.22071752 18.86563295 8.79661494 10.22196803 2.48364258 3.67993164 C1 2 1 2 0 0 Z " fill="#F6C100" transform="translate(34,27)"/>
</svg>
