<svg width="21" height="22" viewBox="0 0 21 22" fill="none" xmlns="http://www.w3.org/2000/svg">
<path d="M7.33333 21V13.0996C7.33333 12.5016 7.33333 12.2027 7.44838 11.9743C7.54958 11.7734 7.71106 11.6101 7.90968 11.5077C8.13547 11.3914 8.43106 11.3914 9.02222 11.3914H11.9778C12.5689 11.3914 12.8645 11.3914 13.0903 11.5077C13.2889 11.6101 13.4504 11.7734 13.5516 11.9743C13.6667 12.2027 13.6667 12.5016 13.6667 13.0996V21M9.46312 1.53077L2.30402 7.16264C1.82547 7.53911 1.58619 7.72734 1.41381 7.96307C1.26111 8.17189 1.14736 8.40713 1.07814 8.65724C1 8.93959 1 9.24619 1 9.85939V17.5836C1 18.7794 1 19.3774 1.2301 19.8341C1.4325 20.2359 1.75546 20.5626 2.15269 20.7673C2.60428 21 3.19544 21 4.37778 21H16.6222C17.8046 21 18.3957 21 18.8473 20.7673C19.2445 20.5626 19.5675 20.2359 19.7699 19.8341C20 19.3774 20 18.7794 20 17.5836V9.85939C20 9.24619 20 8.93959 19.9219 8.65724C19.8526 8.40713 19.7389 8.17189 19.5862 7.96307C19.4138 7.72734 19.1745 7.53911 18.696 7.16264L11.5369 1.53077C11.166 1.23904 10.9806 1.09318 10.7759 1.03711C10.5952 0.987632 10.4048 0.987632 10.2241 1.03711C10.0194 1.09318 9.83397 1.23904 9.46312 1.53077Z" stroke="#006C3A" stroke-width="2" stroke-linecap="round" stroke-linejoin="round"/>
</svg>
