<svg width="34" height="34" viewBox="0 0 34 34" fill="none" xmlns="http://www.w3.org/2000/svg">
<circle cx="16.9999" cy="11.3332" r="4.66667" stroke="#006C3A" stroke-width="2" stroke-linecap="round"/>
<path d="M21.2687 11.125C21.6996 10.3785 22.4095 9.83383 23.2421 9.61074C24.0747 9.38765 24.9618 9.50444 25.7083 9.93542C26.4547 10.3664 26.9994 11.0763 27.2225 11.9088C27.4456 12.7414 27.3288 13.6285 26.8978 14.375C26.4669 15.1215 25.757 15.6662 24.9244 15.8893C24.0918 16.1123 23.2047 15.9956 22.4583 15.5646C21.7118 15.1336 21.1671 14.4237 20.944 13.5912C20.7209 12.7586 20.8377 11.8715 21.2687 11.125L21.2687 11.125Z" stroke="#006C3A" stroke-width="2"/>
<path d="M7.10217 11.125C7.53314 10.3785 8.243 9.83383 9.07559 9.61074C9.90817 9.38765 10.7953 9.50444 11.5417 9.93542C12.2882 10.3664 12.8329 11.0763 13.056 11.9088C13.2791 12.7414 13.1623 13.6285 12.7313 14.375C12.3004 15.1215 11.5905 15.6662 10.7579 15.8893C9.92533 16.1123 9.03822 15.9956 8.29175 15.5646C7.54527 15.1336 7.00058 14.4237 6.77749 13.5912C6.5544 12.7586 6.67119 11.8715 7.10217 11.125L7.10217 11.125Z" stroke="#006C3A" stroke-width="2"/>
<path d="M23.9156 25.5002L22.9353 25.6976L23.0969 26.5002H23.9156V25.5002ZM29.4998 24.3967L28.5414 24.6819V24.6819L29.4998 24.3967ZM20.9395 20.8401L20.3346 20.0438L19.178 20.9222L20.4113 21.6892L20.9395 20.8401ZM28.6172 24.5002H23.9156V26.5002H28.6172V24.5002ZM28.5414 24.6819C28.5371 24.6675 28.5334 24.6391 28.5407 24.6045C28.5476 24.572 28.5615 24.5472 28.5748 24.531C28.6007 24.4993 28.6228 24.5002 28.6172 24.5002V26.5002C29.7845 26.5002 30.849 25.4247 30.4583 24.1115L28.5414 24.6819ZM24.0833 20.8335C25.5474 20.8335 26.5193 21.4182 27.2006 22.1689C27.9082 22.9486 28.3178 23.9305 28.5414 24.6819L30.4583 24.1115C30.1914 23.2142 29.6707 21.9146 28.6816 20.8248C27.6663 19.7061 26.1753 18.8335 24.0833 18.8335V20.8335ZM21.5443 21.6364C22.1603 21.1685 22.9736 20.8335 24.0833 20.8335V18.8335C22.5298 18.8335 21.2929 19.3159 20.3346 20.0438L21.5443 21.6364ZM20.4113 21.6892C22.0271 22.6941 22.6794 24.4269 22.9353 25.6976L24.8959 25.3027C24.5962 23.8148 23.7726 21.4245 21.4676 19.9909L20.4113 21.6892Z" fill="#006C3A"/>
<path d="M13.0605 20.8401L13.5886 21.6892L14.8219 20.9222L13.6653 20.0437L13.0605 20.8401ZM4.50007 24.3967L3.5416 24.1115L4.50007 24.3967ZM10.0843 25.5002V26.5002H10.903L11.0646 25.6976L10.0843 25.5002ZM9.91665 20.8335C11.0263 20.8335 11.8396 21.1685 12.4556 21.6364L13.6653 20.0437C12.707 19.3158 11.4702 18.8335 9.91665 18.8335V20.8335ZM5.45855 24.6819C5.6821 23.9305 6.0917 22.9486 6.79931 22.1689C7.48066 21.4182 8.4526 20.8335 9.91665 20.8335V18.8335C7.82471 18.8335 6.33362 19.7061 5.31831 20.8248C4.32927 21.9146 3.80858 23.2142 3.5416 24.1115L5.45855 24.6819ZM5.38275 24.5002C5.3771 24.5002 5.39921 24.4993 5.42514 24.531C5.43842 24.5472 5.45229 24.572 5.45921 24.6045C5.46654 24.6391 5.46283 24.6675 5.45855 24.6819L3.5416 24.1115C3.15089 25.4247 4.21539 26.5002 5.38275 26.5002V24.5002ZM10.0843 24.5002H5.38275V26.5002H10.0843V24.5002ZM11.0646 25.6976C11.3205 24.4269 11.9728 22.6941 13.5886 21.6892L12.5323 19.9909C10.2273 21.4245 9.40365 23.8148 9.10398 25.3027L11.0646 25.6976Z" fill="#006C3A"/>
<path d="M17.0001 19.8335C22.4166 19.8335 23.6912 23.9754 23.9911 25.9247C24.0751 26.4706 23.6357 26.9168 23.0834 26.9168H10.9167C10.3645 26.9168 9.92506 26.4706 10.009 25.9247C10.309 23.9754 11.5836 19.8335 17.0001 19.8335Z" stroke="#006C3A" stroke-width="2" stroke-linecap="round"/>
</svg>
