<svg width="29" height="29" viewBox="0 0 29 29" fill="none" xmlns="http://www.w3.org/2000/svg">
<path d="M14.5 25.375V15.7083M14.5 25.375L6.87918 19.9316C6.46861 19.6383 6.26332 19.4917 6.15249 19.2763C6.04166 19.0609 6.04166 18.8087 6.04166 18.3041V9.66667M14.5 25.375L22.1208 19.9316C22.5314 19.6383 22.7367 19.4917 22.8475 19.2763C22.9583 19.0609 22.9583 18.8087 22.9583 18.3041V9.66667M14.5 15.7083L6.04166 9.66667M14.5 15.7083L22.9583 9.66667M6.04166 9.66667L13.3375 4.45534C13.8989 4.05438 14.1795 3.8539 14.5 3.8539C14.8205 3.8539 15.1011 4.05438 15.6625 4.45534L22.9583 9.66667" stroke="#33363F" stroke-width="2" stroke-linejoin="round"/>
</svg>
