<svg width="34" height="34" viewBox="0 0 34 34" fill="none" xmlns="http://www.w3.org/2000/svg">
<circle cx="17" cy="11.3332" r="4.66667" stroke="#33363F" stroke-width="2" stroke-linecap="round"/>
<path d="M21.2687 11.125C21.6997 10.3785 22.4096 9.83383 23.2422 9.61074C24.0747 9.38765 24.9618 9.50444 25.7083 9.93542C26.4548 10.3664 26.9995 11.0763 27.2226 11.9088C27.4457 12.7414 27.3289 13.6285 26.8979 14.375C26.4669 15.1215 25.7571 15.6662 24.9245 15.8893C24.0919 16.1123 23.2048 15.9956 22.4583 15.5646C21.7118 15.1336 21.1671 14.4237 20.9441 13.5912C20.721 12.7586 20.8378 11.8715 21.2687 11.125L21.2687 11.125Z" stroke="#33363F" stroke-width="2"/>
<path d="M7.1021 11.125C7.53308 10.3785 8.24294 9.83383 9.07553 9.61074C9.90811 9.38765 10.7952 9.50444 11.5417 9.93542C12.2882 10.3664 12.8329 11.0763 13.0559 11.9088C13.279 12.7414 13.1622 13.6285 12.7313 14.375C12.3003 15.1215 11.5904 15.6662 10.7578 15.8893C9.92527 16.1123 9.03816 15.9956 8.29169 15.5646C7.54521 15.1336 7.00052 14.4237 6.77743 13.5912C6.55434 12.7586 6.67113 11.8715 7.1021 11.125L7.1021 11.125Z" stroke="#33363F" stroke-width="2"/>
<path d="M23.9156 25.5002L22.9353 25.6976L23.097 26.5002H23.9156V25.5002ZM29.4999 24.3967L28.5414 24.6819V24.6819L29.4999 24.3967ZM20.9395 20.8401L20.3347 20.0438L19.1781 20.9222L20.4114 21.6892L20.9395 20.8401ZM28.6172 24.5002H23.9156V26.5002H28.6172V24.5002ZM28.5414 24.6819C28.5371 24.6675 28.5334 24.6391 28.5408 24.6045C28.5477 24.572 28.5616 24.5472 28.5748 24.531C28.6008 24.4993 28.6229 24.5002 28.6172 24.5002V26.5002C29.7846 26.5002 30.8491 25.4247 30.4584 24.1115L28.5414 24.6819ZM24.0834 20.8335C25.5474 20.8335 26.5193 21.4182 27.2007 22.1689C27.9083 22.9486 28.3179 23.9305 28.5414 24.6819L30.4584 24.1115C30.1914 23.2142 29.6707 21.9146 28.6817 20.8248C27.6664 19.7061 26.1753 18.8335 24.0834 18.8335V20.8335ZM21.5444 21.6364C22.1604 21.1685 22.9737 20.8335 24.0834 20.8335V18.8335C22.5298 18.8335 21.293 19.3159 20.3347 20.0438L21.5444 21.6364ZM20.4114 21.6892C22.0271 22.6941 22.6794 24.4269 22.9353 25.6976L24.896 25.3027C24.5963 23.8148 23.7727 21.4245 21.4676 19.9909L20.4114 21.6892Z" fill="#33363F"/>
<path d="M13.0605 20.8401L13.5887 21.6892L14.822 20.9222L13.6654 20.0437L13.0605 20.8401ZM4.50013 24.3967L5.45861 24.6819L5.45861 24.6819L4.50013 24.3967ZM10.0844 25.5002V26.5002H10.903L11.0647 25.6976L10.0844 25.5002ZM9.91671 20.8335C11.0264 20.8335 11.8397 21.1685 12.4557 21.6364L13.6654 20.0437C12.7071 19.3158 11.4702 18.8335 9.91671 18.8335V20.8335ZM5.45861 24.6819C5.68216 23.9305 6.09176 22.9486 6.79937 22.1689C7.48072 21.4182 8.45266 20.8335 9.91671 20.8335V18.8335C7.82477 18.8335 6.33368 19.7061 5.31837 20.8248C4.32933 21.9146 3.80864 23.2142 3.54166 24.1115L5.45861 24.6819ZM5.38281 24.5002C5.37716 24.5002 5.39927 24.4993 5.42521 24.531C5.43848 24.5472 5.45235 24.572 5.45927 24.6045C5.4666 24.6391 5.46289 24.6675 5.45861 24.6819L3.54166 24.1115C3.15095 25.4247 4.21545 26.5002 5.38281 26.5002V24.5002ZM10.0844 24.5002H5.38281V26.5002H10.0844V24.5002ZM11.0647 25.6976C11.3206 24.4269 11.9729 22.6941 13.5887 21.6892L12.5324 19.9909C10.2273 21.4245 9.40371 23.8148 9.10404 25.3027L11.0647 25.6976Z" fill="#33363F"/>
<path d="M17 19.8335C22.4165 19.8335 23.6911 23.9754 23.9911 25.9247C24.075 26.4706 23.6356 26.9168 23.0834 26.9168H10.9167C10.3644 26.9168 9.925 26.4706 10.009 25.9247C10.3089 23.9754 11.5835 19.8335 17 19.8335Z" stroke="#33363F" stroke-width="2" stroke-linecap="round"/>
</svg>
