<svg width="46" height="46" viewBox="0 0 46 46" fill="none" xmlns="http://www.w3.org/2000/svg">
<circle cx="23" cy="23" r="21.5" stroke="#006C3A" stroke-width="3"/>
<g clip-path="url(#clip0_0_1)">
<path d="M10 10.8438C10 10.62 10.0889 10.4054 10.2471 10.2471C10.4054 10.0889 10.62 10 10.8438 10H15.9062C16.13 10 16.3446 10.0889 16.5029 10.2471C16.6611 10.4054 16.75 10.62 16.75 10.8438C16.75 11.0675 16.6611 11.2821 16.5029 11.4404C16.3446 11.5986 16.13 11.6875 15.9062 11.6875C13.5763 11.6875 11.6875 13.5763 11.6875 15.9062C11.6875 16.13 11.5986 16.3446 11.4404 16.5029C11.2821 16.6611 11.0675 16.75 10.8438 16.75C10.62 16.75 10.4054 16.6611 10.2471 16.5029C10.0889 16.3446 10 16.13 10 15.9062V10.8438ZM30.25 10.8438C30.25 10.62 30.3389 10.4054 30.4971 10.2471C30.6554 10.0889 30.87 10 31.0938 10H36.1563C36.38 10 36.5946 10.0889 36.7529 10.2471C36.9111 10.4054 37 10.62 37 10.8438V15.9062C37 16.13 36.9111 16.3446 36.7529 16.5029C36.5946 16.6611 36.38 16.75 36.1563 16.75C35.9325 16.75 35.7179 16.6611 35.5596 16.5029C35.4014 16.3446 35.3125 16.13 35.3125 15.9062C35.3125 13.5763 33.4237 11.6875 31.0938 11.6875C30.87 11.6875 30.6554 11.5986 30.4971 11.4404C30.3389 11.2821 30.25 11.0675 30.25 10.8438ZM10.8438 30.25C11.0675 30.25 11.2821 30.3389 11.4404 30.4971C11.5986 30.6554 11.6875 30.87 11.6875 31.0938C11.6875 33.4237 13.5763 35.3125 15.9062 35.3125C16.13 35.3125 16.3446 35.4014 16.5029 35.5596C16.6611 35.7179 16.75 35.9325 16.75 36.1563C16.75 36.38 16.6611 36.5946 16.5029 36.7529C16.3446 36.9111 16.13 37 15.9062 37H10.8438C10.62 37 10.4054 36.9111 10.2471 36.7529C10.0889 36.5946 10 36.38 10 36.1563V31.0938C10 30.87 10.0889 30.6554 10.2471 30.4971C10.4054 30.3389 10.62 30.25 10.8438 30.25ZM36.1563 30.25C36.38 30.25 36.5946 30.3389 36.7529 30.4971C36.9111 30.6554 37 30.87 37 31.0938V36.1563C37 36.38 36.9111 36.5946 36.7529 36.7529C36.5946 36.9111 36.38 37 36.1563 37H31.0938C30.87 37 30.6554 36.9111 30.4971 36.7529C30.3389 36.5946 30.25 36.38 30.25 36.1563C30.25 35.9325 30.3389 35.7179 30.4971 35.5596C30.6554 35.4014 30.87 35.3125 31.0938 35.3125C33.4237 35.3125 35.3125 33.4237 35.3125 31.0938C35.3125 30.87 35.4014 30.6554 35.5596 30.4971C35.7179 30.3389 35.9325 30.25 36.1563 30.25ZM16.75 17.5938C16.75 17.1278 17.1278 16.75 17.5938 16.75C18.0597 16.75 18.4375 17.1278 18.4375 17.5938C18.4375 18.0597 18.0597 18.4375 17.5938 18.4375C17.1278 18.4375 16.75 18.0597 16.75 17.5938Z" fill="#006C3A"/>
<path d="M21.8125 13.375H13.375V21.8125H21.8125V13.375ZM15.0625 15.0625H20.125V20.125H15.0625V15.0625ZM18.4375 28.5625H16.75V30.25H18.4375V28.5625Z" fill="#006C3A"/>
<path d="M21.8125 25.1875H13.375V33.625H21.8125V25.1875ZM15.0625 26.875H20.125V31.9375H15.0625V26.875ZM28.5625 16.75H30.25V18.4375H28.5625V16.75Z" fill="#006C3A"/>
<path d="M25.1875 13.375H33.625V21.8125H25.1875V13.375ZM26.875 15.0625V20.125H31.9375V15.0625H26.875ZM23.5 23.5V26.875H25.1875V28.5625H23.5V30.25H26.875V26.875H28.5625V30.25H30.25V28.5625H33.625V26.875H28.5625V23.5H23.5ZM26.875 26.875H25.1875V25.1875H26.875V26.875ZM33.625 30.25H31.9375V31.9375H28.5625V33.625H33.625V30.25ZM26.875 33.625V31.9375H23.5V33.625H26.875Z" fill="#006C3A"/>
<path d="M30.25 25.1875H33.625V23.5H30.25V25.1875Z" fill="#006C3A"/>
<circle cx="17.575" cy="17.5751" r="0.975" fill="#006C3A"/>
</g>
<defs>
<clipPath id="clip0_0_1">
<rect width="27" height="27" fill="white" transform="translate(10 10)"/>
</clipPath>
</defs>
</svg>
